<svg xmlns="http://www.w3.org/2000/svg" width="688" height="444" viewBox="0 0 688 444">
<g>
<path d="M 492.35 351.25 L 495.08 356.00 L 424.00 356.00 L 424.00 346.00 L 450.11 346.00 C474.40,346.00 476.17,345.88 475.55,344.28 C475.00,342.84 464.71,323.35 443.98,284.50 C441.93,280.65 435.86,269.17 430.50,259.00 C425.13,248.82 420.36,240.08 419.89,239.57 C419.10,238.71 413.72,243.79 368.83,287.83 L 354.16 302.22 L 316.83 267.43 C296.30,248.30 273.88,227.39 267.00,220.97 C200.78,159.12 197.87,156.56 199.37,161.75 C199.65,162.71 200.15,165.30 200.47,167.50 C201.02,171.23 206.63,200.28 208.97,211.50 C210.67,219.67 219.72,265.29 222.95,282.00 C224.60,290.52 226.20,298.62 226.52,300.00 C228.17,307.19 228.19,312.79 226.60,316.09 C224.56,320.33 221.30,324.64 220.64,323.98 C220.14,323.48 215.62,301.00 205.46,248.50 C202.38,232.55 198.34,211.85 196.50,202.50 C193.25,185.99 185.22,144.80 184.56,141.26 C183.25,134.17 182.92,131.00 183.50,131.00 C184.14,131.00 198.15,143.60 227.99,171.00 C235.48,177.88 249.00,190.25 258.04,198.50 C267.07,206.75 276.55,215.42 279.10,217.76 L 283.73 222.02 L 318.12 155.53 C337.03,118.96 352.77,89.03 353.10,89.02 C353.84,89.00 354.81,90.85 399.72,178.00 C404.11,186.52 410.63,199.12 414.21,206.00 C417.79,212.88 420.92,219.16 421.18,219.96 C421.81,221.95 422.60,221.29 452.86,193.67 C466.82,180.93 481.28,167.80 484.99,164.50 C488.71,161.20 498.66,152.22 507.12,144.55 C518.39,134.32 522.58,131.05 522.82,132.31 C523.13,133.89 519.23,154.63 508.97,206.00 C506.83,216.73 501.89,241.93 497.98,262.00 C486.34,321.78 485.65,325.05 484.67,324.72 C484.15,324.55 482.23,321.50 480.40,317.95 L 477.07 311.50 L 488.94 252.50 C495.47,220.05 502.21,186.84 503.91,178.71 C507.11,163.37 507.53,160.00 506.23,160.00 C505.81,160.00 495.80,168.83 483.98,179.62 C472.17,190.42 456.01,205.16 448.08,212.37 C429.23,229.53 427.80,230.93 428.18,231.82 C429.47,234.81 440.88,256.56 443.49,261.00 C446.37,265.90 451.73,275.88 461.48,294.50 C466.97,305.00 473.23,316.47 474.02,317.50 C474.44,318.05 477.15,323.23 480.05,329.00 C482.95,334.77 486.29,341.08 487.47,343.00 C488.65,344.92 490.84,348.64 492.35,351.25 ZM 335.50 270.75 C344.85,279.63 352.85,286.92 353.28,286.95 C354.09,287.00 413.28,230.32 413.79,229.00 C413.95,228.58 406.47,213.45 397.17,195.37 C387.86,177.29 374.45,151.15 367.37,137.27 C360.29,123.39 353.98,112.03 353.35,112.02 C352.72,112.01 338.61,138.37 322.00,170.61 L 291.80 229.22 L 305.15 241.92 C312.49,248.90 326.15,261.88 335.50,270.75 ZM 281.69 351.00 L 281.62 356.00 L 246.81 356.00 C227.66,356.00 212.00,355.82 212.00,355.61 C212.00,355.16 277.06,233.73 277.67,233.05 C277.89,232.80 279.82,234.38 281.96,236.55 L 285.84 240.50 L 258.00 292.47 C242.69,321.06 230.37,344.79 230.64,345.22 C230.90,345.65 242.51,346.00 256.44,346.00 L 281.77 346.00 Z" fill="rgb(36,30,31)"/>
<path d="M 0.00 222.00 L 0.00 0.00 L 344.00 0.00 L 688.00 0.00 L 688.00 222.00 L 688.00 444.00 L 344.00 444.00 L 0.00 444.00 L 0.00 222.00 ZM 281.69 351.00 L 281.77 346.00 L 256.44 346.00 C242.51,346.00 230.90,345.65 230.64,345.22 C230.37,344.79 242.69,321.06 258.00,292.47 L 285.84 240.50 L 281.96 236.55 C279.82,234.38 277.89,232.80 277.67,233.05 C277.06,233.73 212.00,355.16 212.00,355.61 C212.00,355.82 227.66,356.00 246.81,356.00 L 281.62 356.00 L 281.69 351.00 ZM 492.35 351.25 C490.84,348.64 488.65,344.92 487.47,343.00 C486.29,341.08 482.95,334.77 480.05,329.00 C477.15,323.23 474.44,318.05 474.02,317.50 C473.23,316.47 466.97,305.00 461.48,294.50 C451.73,275.88 446.37,265.90 443.49,261.00 C440.88,256.56 429.47,234.81 428.18,231.82 C427.80,230.93 429.23,229.53 448.08,212.37 C456.01,205.16 472.17,190.42 483.98,179.62 C495.80,168.83 505.81,160.00 506.23,160.00 C507.53,160.00 507.11,163.37 503.91,178.71 C502.21,186.84 495.47,220.05 488.94,252.50 L 477.07 311.50 L 480.40 317.95 C482.23,321.50 484.15,324.55 484.67,324.72 C485.65,325.05 486.34,321.78 497.98,262.00 C501.89,241.93 506.83,216.73 508.97,206.00 C519.23,154.63 523.13,133.89 522.82,132.31 C522.58,131.05 518.39,134.32 507.12,144.55 C498.66,152.22 488.71,161.20 484.99,164.50 C481.28,167.80 466.82,180.93 452.86,193.67 C422.60,221.29 421.81,221.95 421.18,219.96 C420.92,219.16 417.79,212.88 414.21,206.00 C410.63,199.12 404.11,186.52 399.72,178.00 C354.81,90.85 353.84,89.00 353.10,89.02 C352.77,89.03 337.03,118.96 318.12,155.53 L 283.73 222.02 L 279.10 217.76 C276.55,215.42 267.07,206.75 258.04,198.50 C249.00,190.25 235.48,177.88 227.99,171.00 C198.15,143.60 184.14,131.00 183.50,131.00 C182.92,131.00 183.25,134.17 184.56,141.26 C185.22,144.80 193.25,185.99 196.50,202.50 C198.34,211.85 202.38,232.55 205.46,248.50 C215.62,301.00 220.14,323.48 220.64,323.98 C221.30,324.64 224.56,320.33 226.60,316.09 C228.19,312.79 228.17,307.19 226.52,300.00 C226.20,298.62 224.60,290.52 222.95,282.00 C219.72,265.29 210.67,219.67 208.97,211.50 C206.63,200.28 201.02,171.23 200.47,167.50 C200.15,165.30 199.65,162.71 199.37,161.75 C197.87,156.56 200.78,159.12 267.00,220.97 C273.88,227.39 296.30,248.30 316.83,267.43 L 354.16 302.22 L 368.83 287.83 C413.72,243.79 419.10,238.71 419.89,239.57 C420.36,240.08 425.13,248.82 430.50,259.00 C435.86,269.17 441.93,280.65 443.98,284.50 C464.71,323.35 475.00,342.84 475.55,344.28 C476.17,345.88 474.40,346.00 450.11,346.00 L 424.00 346.00 L 424.00 351.00 L 424.00 356.00 L 459.54 356.00 L 495.08 356.00 L 492.35 351.25 ZM 335.50 270.75 C326.15,261.88 312.49,248.90 305.15,241.92 L 291.80 229.22 L 322.00 170.61 C338.61,138.37 352.72,112.01 353.35,112.02 C353.98,112.03 360.29,123.39 367.37,137.27 C374.45,151.15 387.86,177.29 397.17,195.37 C406.47,213.45 413.95,228.58 413.79,229.00 C413.28,230.32 354.09,287.00 353.28,286.95 C352.85,286.92 344.85,279.63 335.50,270.75 Z" fill="rgb(245,240,232)"/>
</g>
</svg>